<svg width="67" height="72" viewBox="0 0 67 72" fill="none" xmlns="http://www.w3.org/2000/svg">
<path d="M8.60351 1.65327V13.5582H15.2556C16.9821 13.5582 18.1356 13.2983 18.7159 12.7785C19.4921 12.0998 19.9201 10.9014 20.0071 9.18318H20.8341V19.6659H20.0071C19.7968 18.2003 19.5937 17.2618 19.3833 16.843C19.1149 16.3232 18.6796 15.919 18.0703 15.623C17.4609 15.327 16.5251 15.1753 15.2556 15.1753H8.60351V25.1021C8.60351 26.4377 8.66154 27.2463 8.78486 27.5351C8.90093 27.8239 9.11131 28.0549 9.40873 28.2209C9.70615 28.3942 10.272 28.4736 11.1062 28.4736H16.2422C17.9542 28.4736 19.1947 28.3581 19.9709 28.1199C20.7471 27.8816 21.487 27.4196 22.2052 26.7193C23.1265 25.8024 24.0695 24.4163 25.0416 22.5681H25.9338L23.3223 30.1197H0V29.2966H1.07362C1.78454 29.2966 2.46643 29.1234 3.10481 28.7841C3.58359 28.5458 3.90277 28.1921 4.07687 27.7156C4.25097 27.2391 4.33077 26.2717 4.33077 24.8061V5.24134C4.33077 3.32818 4.13491 2.1514 3.75043 1.71101C3.21362 1.11902 2.32135 0.82302 1.07362 0.82302H0V0H23.3223L23.656 6.5986H22.7855C22.4736 5.01754 22.1254 3.92739 21.7482 3.3354C21.3709 2.7434 20.8051 2.28858 20.0652 1.97814C19.4703 1.75434 18.4185 1.64604 16.9168 1.64604H8.61802L8.60351 1.65327Z" fill="#3A3A3A"/>
<path d="M39.5655 20.7562V31.174H38.7385C38.4701 29.1742 37.9914 27.5859 37.3022 26.4019C36.6131 25.2179 35.6265 24.2793 34.3425 23.5791C33.0657 22.886 31.7382 22.5322 30.3672 22.5322C28.822 22.5322 27.538 23.0015 26.5297 23.94C25.5141 24.8786 25.0135 25.947 25.0135 27.1455C25.0135 28.0624 25.3327 28.8998 25.9711 29.6579C26.8924 30.7697 29.0904 32.2496 32.5507 34.0978C35.3798 35.6067 37.3095 36.7691 38.3396 37.5704C39.3697 38.379 40.1676 39.332 40.7262 40.4221C41.2848 41.5195 41.5604 42.6674 41.5604 43.8658C41.5604 46.1471 40.6682 48.1109 38.8909 49.7641C37.1136 51.4174 34.8285 52.2404 32.0284 52.2404C31.1506 52.2404 30.3236 52.1754 29.5547 52.0382C29.0904 51.966 28.1401 51.6917 26.6893 51.2297C25.2384 50.7604 24.3171 50.5294 23.9327 50.5294C23.5482 50.5294 23.2653 50.6377 23.0477 50.8615C22.83 51.0853 22.6704 51.5401 22.5689 52.2404H21.7419V41.9165H22.5689C22.9534 44.0752 23.4757 45.6923 24.1285 46.768C24.7814 47.8437 25.7825 48.7317 27.1318 49.4465C28.4811 50.154 29.9537 50.5149 31.5641 50.5149C33.4212 50.5149 34.8938 50.024 35.9747 49.0494C37.0556 48.0747 37.5924 46.9196 37.5924 45.584C37.5924 44.8404 37.3893 44.0968 36.9758 43.3388C36.5623 42.5807 35.9312 41.8804 35.0679 41.2307C34.4876 40.7831 32.9061 39.8445 30.3164 38.4006C27.7266 36.9568 25.8841 35.8089 24.7959 34.9497C23.7005 34.0906 22.8736 33.1449 22.3077 32.1053C21.7419 31.0657 21.459 29.9322 21.459 28.6832C21.459 26.5246 22.2932 24.662 23.9617 23.0954C25.6302 21.5359 27.7484 20.749 30.3236 20.749C31.9268 20.749 33.6316 21.1389 35.4306 21.9258C36.2648 22.294 36.8524 22.4817 37.1934 22.4817C37.5779 22.4817 37.8971 22.3662 38.1437 22.1352C38.3903 21.9041 38.5862 21.4421 38.7385 20.749H39.5655V20.7562Z" fill="#3A3A3A"/>
<path d="M36.5195 71.2418V70.4188H37.6584C38.9352 70.4188 39.842 70.0145 40.3788 69.1987C40.7052 68.7078 40.8721 67.6177 40.8721 65.9139V46.4574C40.8721 44.5803 40.6617 43.4035 40.2482 42.927C39.6679 42.2773 38.8046 41.9524 37.6584 41.9524H36.5195V41.1294H48.8372C53.3566 41.1294 56.8023 41.642 59.16 42.6599C61.5176 43.6851 63.4182 45.3817 64.8473 47.7713C66.2836 50.1537 67.0018 52.9116 67.0018 56.0304C67.0018 60.2177 65.725 63.7191 63.1643 66.5347C60.2916 69.6752 55.9173 71.2418 50.0414 71.2418H36.5195ZM45.1521 69.0688C47.0381 69.4803 48.6268 69.6897 49.9036 69.6897C53.3566 69.6897 56.222 68.484 58.4926 66.0727C60.7631 63.6614 61.9093 60.3837 61.9093 56.2542C61.9093 52.1247 60.7704 48.8109 58.4926 46.4141C56.2148 44.0172 53.2913 42.8188 49.7222 42.8188C48.3802 42.8188 46.8568 43.0353 45.1448 43.4613V69.0688H45.1521Z" fill="#3A3A3A"/>
</svg>
