<svg width="35" height="35" viewBox="0 0 35 35" fill="none" xmlns="http://www.w3.org/2000/svg">
<path d="M26.3308 5.91083C25.9254 5.91083 25.529 6.03106 25.1919 6.25632C24.8548 6.48158 24.592 6.80174 24.4369 7.17633C24.2817 7.55092 24.2411 7.96311 24.3202 8.36077C24.3993 8.75843 24.5946 9.1237 24.8813 9.4104C25.168 9.6971 25.5332 9.89234 25.9309 9.97144C26.3286 10.0505 26.7407 10.0099 27.1153 9.85479C27.4899 9.69963 27.8101 9.43687 28.0353 9.09975C28.2606 8.76263 28.3808 8.36629 28.3808 7.96083C28.3808 7.41714 28.1649 6.89571 27.7804 6.51126C27.396 6.12682 26.8745 5.91083 26.3308 5.91083ZM34.1892 10.045C34.1559 8.62759 33.8905 7.22523 33.4033 5.89375C32.969 4.75452 32.2929 3.72293 31.4217 2.87C30.5757 1.99435 29.5417 1.32255 28.3979 0.905417C27.07 0.403441 25.666 0.1319 24.2467 0.1025C22.4358 -9.54606e-08 21.855 0 17.2083 0C12.5617 0 11.9808 -9.54606e-08 10.17 0.1025C8.75064 0.1319 7.34671 0.403441 6.01875 0.905417C4.87703 1.32677 3.84393 1.998 2.995 2.87C2.11935 3.71593 1.44755 4.74992 1.03042 5.89375C0.528441 7.22171 0.2569 8.62564 0.2275 10.045C0.125 11.8558 0.125 12.4367 0.125 17.0833C0.125 21.73 0.125 22.3108 0.2275 24.1217C0.2569 25.541 0.528441 26.945 1.03042 28.2729C1.44755 29.4167 2.11935 30.4507 2.995 31.2967C3.84393 32.1687 4.87703 32.8399 6.01875 33.2612C7.34671 33.7632 8.75064 34.0348 10.17 34.0642C11.9808 34.1667 12.5617 34.1667 17.2083 34.1667C21.855 34.1667 22.4358 34.1667 24.2467 34.0642C25.666 34.0348 27.07 33.7632 28.3979 33.2612C29.5417 32.8441 30.5757 32.1723 31.4217 31.2967C32.2967 30.4469 32.9734 29.4144 33.4033 28.2729C33.8905 26.9414 34.1559 25.5391 34.1892 24.1217C34.1892 22.3108 34.2917 21.73 34.2917 17.0833C34.2917 12.4367 34.2917 11.8558 34.1892 10.045ZM31.1142 23.9167C31.1017 25.0011 30.9053 26.0755 30.5333 27.0942C30.2606 27.8376 29.8225 28.5094 29.2521 29.0588C28.698 29.6234 28.0276 30.0606 27.2875 30.34C26.2688 30.712 25.1944 30.9084 24.11 30.9208C22.4017 31.0063 21.7696 31.0233 17.2767 31.0233C12.7837 31.0233 12.1517 31.0233 10.4433 30.9208C9.31736 30.9419 8.19618 30.7685 7.12917 30.4083C6.42154 30.1146 5.7819 29.6785 5.25 29.1271C4.68298 28.5783 4.25036 27.906 3.98583 27.1625C3.56875 26.1292 3.33742 25.0304 3.3025 23.9167C3.3025 22.2083 3.2 21.5763 3.2 17.0833C3.2 12.5904 3.2 11.9583 3.3025 10.25C3.31016 9.14139 3.51254 8.04274 3.90042 7.00417C4.20116 6.2831 4.66279 5.64033 5.25 5.125C5.76901 4.53762 6.41045 4.07112 7.12917 3.75833C8.17048 3.38257 9.268 3.18618 10.375 3.1775C12.0833 3.1775 12.7154 3.075 17.2083 3.075C21.7013 3.075 22.3333 3.075 24.0417 3.1775C25.1261 3.18994 26.2005 3.38634 27.2192 3.75833C27.9955 4.04645 28.6923 4.51486 29.2521 5.125C29.8119 5.64976 30.2493 6.29134 30.5333 7.00417C30.913 8.04443 31.1095 9.14262 31.1142 10.25C31.1996 11.9583 31.2167 12.5904 31.2167 17.0833C31.2167 21.5763 31.1996 22.2083 31.1142 23.9167ZM17.2083 8.31958C15.4758 8.32296 13.7831 8.83982 12.3441 9.80484C10.9052 10.7699 9.78456 12.1398 9.12387 13.7414C8.46319 15.3431 8.29207 17.1046 8.63215 18.8035C8.97223 20.5024 9.80824 22.0623 11.0345 23.2863C12.2609 24.5102 13.8224 25.3432 15.522 25.6799C17.2215 26.0167 18.9827 25.8421 20.5831 25.1783C22.1835 24.5145 23.5512 23.3913 24.5134 21.9504C25.4756 20.5096 25.9892 18.8159 25.9892 17.0833C25.9914 15.9304 25.7657 14.7884 25.325 13.723C24.8843 12.6576 24.2374 11.6898 23.4213 10.8753C22.6053 10.0609 21.6362 9.41578 20.57 8.97717C19.5037 8.53856 18.3613 8.31508 17.2083 8.31958ZM17.2083 22.7721C16.0832 22.7721 14.9833 22.4384 14.0478 21.8134C13.1123 21.1883 12.3832 20.2998 11.9526 19.2603C11.522 18.2208 11.4094 17.077 11.6289 15.9735C11.8484 14.87 12.3902 13.8564 13.1858 13.0608C13.9814 12.2652 14.995 11.7234 16.0985 11.5039C17.202 11.2844 18.3458 11.397 19.3853 11.8276C20.4248 12.2582 21.3133 12.9873 21.9384 13.9228C22.5634 14.8583 22.8971 15.9582 22.8971 17.0833C22.8971 17.8304 22.7499 18.5701 22.4641 19.2603C22.1782 19.9505 21.7591 20.5776 21.2309 21.1059C20.7026 21.6341 20.0755 22.0532 19.3853 22.3391C18.6951 22.6249 17.9554 22.7721 17.2083 22.7721Z" fill="#3A3A3A"/>
</svg>
