<svg width="22" height="17" viewBox="0 0 22 17" fill="none" xmlns="http://www.w3.org/2000/svg">
<g clip-path="url(#clip0_444_149)">
<path d="M3.95847 1.31152C2.43551 1.31152 1.19531 2.52541 1.19531 4.01607V13.0312C1.19531 14.5219 2.43551 15.7358 3.95847 15.7358H18.6953C20.2183 15.7358 21.4585 14.5219 21.4585 13.0312V4.01607C21.4585 2.52541 20.2183 1.31152 18.6953 1.31152H3.95847ZM3.95847 2.21304H18.6953C19.7237 2.21304 20.5374 3.00953 20.5374 4.01607V13.0312C20.5374 14.0378 19.7237 14.8342 18.6953 14.8342H3.95847C3.71605 14.836 3.47568 14.7906 3.25136 14.7007C3.02703 14.6107 2.82323 14.478 2.65181 14.3102C2.48038 14.1424 2.34476 13.9429 2.25284 13.7233C2.16092 13.5038 2.11453 13.2685 2.11637 13.0312V4.01607C2.11637 3.00953 2.93012 2.21304 3.95847 2.21304Z" fill="black"/>
<path d="M4.43472 4.01581C4.37201 4.01406 4.3096 4.02488 4.25132 4.04759C4.19303 4.0703 4.1401 4.10443 4.09577 4.14788C4.00944 4.23241 3.96094 4.34704 3.96094 4.46656C3.96094 4.58609 4.00944 4.70072 4.09577 4.78525L9.62209 10.1943C10.5611 11.1139 12.0974 11.1139 13.0364 10.1943L18.5627 4.78525C18.6491 4.70072 18.6976 4.58609 18.6976 4.46656C18.6976 4.34704 18.6491 4.23241 18.5627 4.14788C18.4764 4.06337 18.3593 4.0159 18.2372 4.0159C18.115 4.0159 17.9979 4.06337 17.9116 4.14788L12.3852 9.55697C12.247 9.6935 12.0826 9.80188 11.9013 9.87584C11.7201 9.9498 11.5256 9.98788 11.3293 9.98788C11.1329 9.98788 10.9385 9.9498 10.7572 9.87584C10.576 9.80188 10.4115 9.6935 10.2733 9.55697L4.74696 4.14788C4.66391 4.06647 4.55221 4.01922 4.43472 4.01581Z" fill="black"/>
</g>
<defs>
<clipPath id="clip0_444_149">
<rect width="21" height="16.2273" fill="white" transform="translate(0.828125 0.410156)"/>
</clipPath>
</defs>
</svg>
