<svg width="21" height="21" viewBox="0 0 21 21" fill="none" xmlns="http://www.w3.org/2000/svg">
<path d="M19.3852 15.4133C18.5582 14.5637 16.2076 12.9721 14.667 12.9721C14.3102 12.9721 13.9987 13.0514 13.7438 13.2156C12.9904 13.6971 12.3901 14.0709 12.1012 14.0709C11.9426 14.0709 11.7727 13.9293 11.3988 13.6064L11.3365 13.5498C10.3 12.6492 10.0791 12.417 9.67697 11.9979L9.57502 11.8902C9.50139 11.8166 9.43908 11.7486 9.37678 11.6863C9.02561 11.3238 8.77072 11.0633 7.87014 10.0438L7.83049 9.99844C7.40002 9.51133 7.11682 9.19414 7.09982 8.96191C7.08283 8.73535 7.28108 8.36719 7.78518 7.68184C8.3969 6.85488 8.41955 5.83535 7.85881 4.65156C7.41135 3.71699 6.68068 2.82207 6.03498 2.03477L5.97834 1.9668C5.42326 1.28711 4.77756 0.947266 4.05822 0.947266C3.25959 0.947266 2.59689 1.37773 2.24572 1.6043C2.2174 1.62129 2.18908 1.64395 2.16076 1.66094C1.37346 2.15937 0.801386 2.84473 0.586152 3.54141C0.2633 4.58926 0.0480659 5.94863 1.59435 8.775C2.93107 11.2219 4.14318 12.8645 6.06896 14.8412C7.88146 16.699 8.68576 17.2994 10.4869 18.6021C12.492 20.0521 14.4178 20.8848 15.7658 20.8848C17.0176 20.8848 18.0031 20.8848 19.4078 19.1912C20.8805 17.4127 20.2688 16.3252 19.3852 15.4133ZM18.7338 18.5795C17.601 19.9502 16.9496 19.9502 15.7715 19.9502C14.6217 19.9502 12.8375 19.1572 11.0024 17.8375C9.2465 16.5687 8.46486 15.9854 6.70334 14.1785C4.83986 12.2697 3.6674 10.6781 2.376 8.31621C1.01096 5.81836 1.16389 4.72519 1.44143 3.82461C1.58869 3.34316 2.03049 2.82773 2.63088 2.45391C2.6592 2.43691 2.68752 2.41426 2.7215 2.39727C3.0217 2.20469 3.52014 1.88184 4.06389 1.88184C4.51701 1.88184 4.91916 2.1084 5.30432 2.57852L5.36096 2.64648C6.80529 4.41367 7.93244 5.97695 7.08283 7.13242C6.48244 7.94238 6.16525 8.4918 6.21623 9.0582C6.26154 9.60762 6.62971 10.0211 7.18478 10.6441L7.22443 10.6895C8.13635 11.7203 8.3969 11.9922 8.75939 12.3604C8.8217 12.4227 8.884 12.4906 8.95764 12.5643L9.05959 12.6719C9.47873 13.108 9.71096 13.3459 10.7758 14.2805L10.8381 14.3371C11.2912 14.7336 11.6254 15.0225 12.1125 15.0225C12.6166 15.0225 13.1717 14.7053 14.2252 14.0312C14.3328 13.9633 14.4858 13.9236 14.6783 13.9236C15.9074 13.9236 18.0258 15.3283 18.7678 16.093C19.4475 16.784 19.7873 17.3051 18.7338 18.5795Z" fill="black"/>
</svg>
