<svg width="16" height="18" viewBox="0 0 16 18" fill="none" xmlns="http://www.w3.org/2000/svg">
<path d="M15.2008 7.84023V5.00023C13.8708 5.00023 12.8558 4.64523 12.2008 3.95523C11.5285 3.16776 11.1519 2.17051 11.1358 1.13523V0.930234L8.45078 0.865234V12.4002C8.35868 12.9035 8.11438 13.3664 7.75085 13.7265C7.38733 14.0865 6.9221 14.3263 6.41795 14.4136C5.91381 14.5008 5.39503 14.4313 4.93166 14.2144C4.46828 13.9974 4.08262 13.6436 3.82674 13.2005C3.57086 12.7574 3.45707 12.2465 3.50075 11.7368C3.54443 11.227 3.74346 10.7429 4.07098 10.3498C4.3985 9.95677 4.83874 9.67365 5.33226 9.53871C5.82579 9.40377 6.34883 9.4235 6.83078 9.59523V6.84523C6.54978 6.79919 6.26553 6.77578 5.98078 6.77523C4.95628 6.77523 3.95478 7.07904 3.10293 7.64822C2.25108 8.21741 1.58715 9.02641 1.19509 9.97293C0.803026 10.9195 0.700444 11.961 0.900316 12.9658C1.10019 13.9706 1.59353 14.8936 2.31797 15.618C3.04241 16.3425 3.96539 16.8358 4.97022 17.0357C5.97504 17.2356 7.01656 17.133 7.96308 16.7409C8.9096 16.3489 9.71861 15.6849 10.2878 14.8331C10.857 13.9812 11.1608 12.9797 11.1608 11.9552C11.1602 11.743 11.1469 11.5309 11.1208 11.3202V6.74523C12.3417 7.50771 13.7622 7.88894 15.2008 7.84023Z" fill="#E7E7E7"/>
</svg>
