<svg width="26" height="28" viewBox="0 0 26 28" fill="none" xmlns="http://www.w3.org/2000/svg">
<path d="M25.5063 12.1012V7.24951C23.2342 7.24951 21.5002 6.64305 20.3813 5.4643C19.2328 4.11903 18.5894 2.41539 18.5619 0.646797V0.296589L13.975 0.185547V19.8912C13.8177 20.7509 13.4003 21.5417 12.7793 22.1568C12.1583 22.7719 11.3635 23.1816 10.5023 23.3306C9.641 23.4797 8.75476 23.3609 7.96316 22.9903C7.17156 22.6197 6.51273 22.0152 6.0756 21.2583C5.63846 20.5014 5.44408 19.6286 5.5187 18.7578C5.59331 17.8869 5.93333 17.0599 6.49284 16.3884C7.05236 15.7169 7.80443 15.2333 8.64753 15.0027C9.49063 14.7722 10.3842 14.8059 11.2075 15.0993V10.4014C10.7275 10.3227 10.2419 10.2827 9.75542 10.2818C8.00522 10.2818 6.29432 10.8008 4.83909 11.7732C3.38385 12.7455 2.24963 14.1276 1.57986 15.7445C0.910084 17.3615 0.734841 19.1408 1.07629 20.8574C1.41774 22.5739 2.26054 24.1507 3.49811 25.3883C4.73569 26.6258 6.31246 27.4686 8.02903 27.8101C9.7456 28.1515 11.5249 27.9763 13.1419 27.3065C14.7588 26.6368 16.1409 25.5025 17.1132 24.0473C18.0856 22.5921 18.6046 20.8812 18.6046 19.131C18.6036 18.7683 18.5808 18.4061 18.5363 18.0462V10.2305C20.622 11.5331 23.0486 12.1844 25.5063 12.1012Z" fill="#3A3A3A"/>
</svg>
